<svg width="16" height="16" viewBox="0 0 16 16" fill="none" xmlns="http://www.w3.org/2000/svg">
<path d="M5.33333 2.66666C2.38667 2.66666 0 5.05332 0 7.99999C0 10.9467 2.38667 13.3333 5.33333 13.3333C8.28 13.3333 10.6667 10.9467 10.6667 7.99999C10.6667 5.05332 8.28 2.66666 5.33333 2.66666ZM5.33333 12C3.12667 12 1.33333 10.2067 1.33333 7.99999C1.33333 5.79332 3.12667 3.99999 5.33333 3.99999C7.54 3.99999 9.33333 5.79332 9.33333 7.99999C9.33333 10.2067 7.54 12 5.33333 12ZM12.3333 7.99999C12.3333 8.45999 12.1467 8.87999 11.8467 9.17999L12.7867 10.12C13.3333 9.57999 13.6667 8.82666 13.6667 7.99999C13.6667 7.17332 13.3333 6.41999 12.7867 5.87999L11.8467 6.81999C12.1467 7.11999 12.3333 7.53999 12.3333 7.99999ZM14.6667 7.99999C14.6667 9.10666 14.22 10.1067 13.4933 10.8267L14.4333 11.7667C15.4 10.8067 16 9.47332 16 7.99999C16 6.52666 15.4 5.19332 14.4333 4.23332L13.4933 5.17332C13.8665 5.54317 14.1625 5.98354 14.3639 6.46881C14.5653 6.95408 14.6683 7.47457 14.6667 7.99999V7.99999ZM7.87333 9.61332L6.94667 10.54L4.66667 8.25999V5.33332H6V7.73999L7.87333 9.61332Z" fill="#431C8A"/>
</svg>
