<svg width="24" height="24" viewBox="0 0 24 24" fill="none" xmlns="http://www.w3.org/2000/svg">
<path d="M7.72222 3H3.94444C3.69396 3 3.45374 3.0995 3.27662 3.27662C3.0995 3.45374 3 3.69396 3 3.94444V7.72222M7.72222 20H3.94444C3.69396 20 3.45374 19.9005 3.27662 19.7234C3.0995 19.5463 3 19.306 3 19.0556V15.2778M15.2778 20H19.0556C19.306 20 19.5463 19.9005 19.7234 19.7234C19.9005 19.5463 20 19.306 20 19.0556V15.2778M15.2778 3H19.0556C19.306 3 19.5463 3.0995 19.7234 3.27662C19.9005 3.45374 20 3.69396 20 3.94444V7.72222M11.5 7.72222V15.2778M15.2778 7.72222V15.2778M7.72222 7.72222V15.2778" stroke="#292626" stroke-width="2" stroke-linecap="round" stroke-linejoin="round"/>
</svg>
