<svg width="251" height="22" viewBox="0 0 251 22" fill="none" xmlns="http://www.w3.org/2000/svg">
<g clip-path="url(#clip0_12_2)">
<path fill-rule="evenodd" clip-rule="evenodd" d="M24.0682 19.7516H18.5005V12.2287H7.56766V19.7516H2V1.25013H7.56766V8.77476H18.5005V1.25013H24.0682V19.7516ZM50.8941 1.25013V11.7353C50.8941 17.903 45.9339 20 39.8601 20C33.3813 20 28.826 17.5329 28.826 11.7353V1.25013H34.2924V11.8586C34.2924 14.4491 36.6207 16.176 39.7588 16.176C42.6945 16.176 45.4277 14.8191 45.4277 11.4903V1.25184H50.8941V1.25013ZM70.5328 6.06096C67.2934 4.82742 65.37 4.45563 63.5479 4.45563C61.5233 4.45563 60.3085 5.0724 60.3085 5.93588C60.3085 8.77304 71.5451 8.03292 71.5451 14.324C71.5451 17.9013 68.002 19.9983 63.0417 19.9983C59.195 19.9983 57.2716 19.1348 55.0446 18.148V14.2006C58.2839 15.9276 60.2073 16.5427 62.6368 16.5427C64.7626 16.5427 65.8762 15.9276 65.8762 14.8157C65.8762 11.8552 54.6396 12.9654 54.6396 6.30424C54.6396 3.09703 57.879 1 63.0431 1C65.4727 1 67.801 1.49342 70.5342 2.48025V6.06096H70.5328ZM97.3587 19.7516H91.8923V12.2287H80.8582V19.7516H75.2906V1.25013H80.8582V8.77476H91.8923V1.25013H97.3587V19.7516ZM117.099 4.70406H119.022C121.958 4.70406 123.071 5.19748 123.071 6.80109C123.071 8.28134 122.16 9.02146 119.629 9.02146H117.099V4.70406ZM111.531 1.25013V19.7516H117.099V12.227H121.451C126.41 12.227 128.637 9.38982 128.637 6.79937C128.637 4.20893 126.311 1.24842 121.349 1.24842H111.531V1.25013ZM154.453 1.25013V11.7353C154.453 17.903 149.39 20 143.317 20C136.94 20 132.282 17.5329 132.282 11.7353V1.25013H137.849V11.8586C137.849 14.4491 140.076 16.176 143.317 16.176C146.253 16.176 148.885 14.8191 148.885 11.4903V1.25184H154.453V1.25013ZM164.879 4.70406H166.902C169.838 4.70406 170.953 5.19748 170.953 6.80109C170.953 8.28134 170.042 9.02146 167.511 9.02146H164.879V4.70406ZM159.411 1.25013V19.7516H164.879V12.227H169.333C174.395 12.227 176.622 9.38982 176.622 6.79937C176.622 4.20893 174.294 1.24842 169.232 1.24842H159.411V1.25013ZM186.237 4.70406H188.161C191.096 4.70406 192.21 5.19748 192.21 6.80109C192.21 8.28134 191.3 9.02146 188.77 9.02146H186.237V4.70406ZM180.67 1.25013V19.7516H186.237V12.227H190.592C195.653 12.227 197.88 9.38982 197.88 6.79937C197.88 4.20893 195.653 1.24842 190.592 1.24842H180.67V1.25013ZM207.496 19.7516H201.928V1.25013H207.496V19.7516ZM228.958 19.7516H212.559V1.25013H228.653V4.70406H218.126V8.52804H228.249V11.8586H218.126V16.2994H228.958V19.7516ZM247.988 6.06096C244.748 4.82742 242.825 4.45563 241.003 4.45563C238.98 4.45563 237.763 5.0724 237.763 5.93588C237.763 8.77304 249 8.03292 249 14.324C249 17.9013 245.456 19.9983 240.497 19.9983C236.65 19.9983 234.727 19.1348 232.499 18.148V14.2006C235.739 15.9276 237.662 16.5427 240.092 16.5427C242.218 16.5427 243.331 15.9276 243.331 14.8157C243.331 11.8552 232.095 12.9654 232.095 6.30424C232.095 3.09703 235.334 1 240.498 1C242.928 1 245.155 1.49342 247.988 2.48025V6.06096Z" fill="black"/>
</g>
<defs>
<clipPath id="clip0_12_2">
<rect width="251" height="22" fill="white"/>
</clipPath>
</defs>
</svg>
