<svg width="108" height="18" viewBox="0 0 108 18" fill="none" xmlns="http://www.w3.org/2000/svg">
<g clip-path="url(#clip0_5_226)">
<path d="M87.8485 12.3096V13.6042H79.2942V4.58615H81.9305V12.3096H87.8485ZM71.4477 12.3096H77.3632V13.6042H68.8078V4.58615H71.4477V12.3096ZM59.1188 12.4121H65.6241V13.6384H56.4706V4.55809L56.5071 4.5862H65.5203V5.93445H59.1423V8.27224H64.1708V9.58511H59.1187L59.1188 12.4121ZM49.1431 8.98354H45.0653V6.08204H49.2068C49.9889 6.07228 50.653 6.76532 50.6152 7.58525C50.5987 8.39665 49.9228 9.0299 49.1431 8.98354ZM53.2516 7.33147C53.2657 5.68916 51.8762 4.58615 50.2165 4.58615H42.3417V13.6384H44.9934V10.2049H47.7359L50.0714 13.6042H52.9697L50.5551 10.0585C52.0236 10.0744 53.2433 8.85786 53.2516 7.33147ZM10.1924 4.55809H13.6946V13.5944H10.9745V6.19917L7.88635 13.6042H5.29364L1.93658 6.41148V13.6042H0.334717V4.55809H3.79205L7.20691 11.8545L10.1924 4.55809ZM19.34 12.4121H25.8501V13.6384H16.686V4.55809L16.7284 4.5862H25.7427V5.93445H19.3577V8.27224H24.3886V9.58511H19.34V12.4121ZM35.3044 8.98354H31.2289V6.08204H35.374C36.1513 6.07228 36.8107 6.76532 36.7847 7.58525C36.7694 8.39665 36.0852 9.0299 35.3044 8.98354ZM39.4187 7.33147C39.4317 5.68916 38.041 4.58615 36.3707 4.58615H28.5112V13.6384H31.1723V10.2049H33.9018L36.2315 13.6042H39.1344L36.7257 10.0585C38.1896 10.0744 39.4164 8.85786 39.4187 7.33147ZM107.665 8.9994C107.665 13.7799 103.947 17.6539 99.3611 17.6539C94.7749 17.6539 91.0569 13.7799 91.0569 8.9994C91.0569 4.22133 94.7749 0.346161 99.3611 0.346161C103.947 0.346161 107.665 4.22133 107.665 8.9994Z" fill="#292626"/>
<path d="M94.572 2.72178V14.9159L98.1839 14.0605V6.02104L100.679 13.509L102.915 12.9771L104.584 6.98251V12.5891L106.036 12.2401V5.48906L103.545 4.87533L101.993 10.0914L99.9709 4.03709L94.572 2.72178Z" fill="white"/>
</g>
<defs>
<clipPath id="clip0_5_226">
<rect width="108" height="18" fill="white"/>
</clipPath>
</defs>
</svg>
