<svg width="24" height="24" viewBox="0 0 24 24" fill="none" xmlns="http://www.w3.org/2000/svg">
<path d="M11.901 11.554L12.703 7.45401L13.501 11.554H11.901ZM14.77 5.03401H10.62L8.2 15.884L12.703 12.249L17.398 16.183L14.77 5.03401ZM12.703 13.19L5.194 19.262H19.95L12.703 13.19ZM24 5.02001V7.79001H21.934V19.24H21.052L18.616 17.2V7.79001H16.559V5.02001H24ZM6.872 16.864C7.42 16.406 7.514 15.84 7.514 15.332V13.2H4.534V16.094C4.53427 16.2927 4.45564 16.4835 4.31539 16.6243C4.17514 16.7651 3.98474 16.8445 3.786 16.845C3.372 16.845 3.064 16.509 3.064 16.095V7.89301C3.064 7.47901 3.372 7.14301 3.786 7.14301C3.98474 7.14327 4.17525 7.22241 4.31568 7.36303C4.45612 7.50365 4.535 7.69427 4.535 7.89301V10.806H7.51V7.78501C7.51 6.11501 6.418 4.74101 3.76 4.73801C1.032 4.73801 0 6.11801 0 7.78801V16.351C0 18.006 1.314 19.258 2.995 19.258H3.917L6.872 16.864Z" fill="black"/>
</svg>
