<svg width="176" height="176" viewBox="0 0 176 176" fill="none" xmlns="http://www.w3.org/2000/svg">
<path d="M14.6541 30.5938C17.5072 47.5063 20.6422 65.0031 19.5869 82.6719C18.59 99.4469 9.89656 114.572 8.73125 128.906H118.628C120.45 123.269 124.197 118.284 128.356 114.434C129.8 113.094 131.278 111.856 132.756 110.791C120.759 107.456 111.547 102.541 104.397 96.5938H83.875V90.4062H97.9688C95.0469 87.1406 92.5719 83.6687 90.5094 80.0938H71.5V73.9062H87.3125C85.7313 70.5031 84.425 67.0656 83.2906 63.5938H66V57.4062H81.4C80.4375 53.9344 79.5781 50.4625 78.7875 47.0938H60.5V40.9062H77.3438C76.5187 37.2969 75.6594 33.8456 74.6969 30.5938H14.6541V30.5938ZM44 73.9062C54.7937 73.9062 63.5938 82.7063 63.5938 93.5C63.5938 104.294 54.7937 113.094 44 113.094C33.2166 113.094 24.4062 104.294 24.4062 93.5C24.4062 82.7063 33.2166 73.9062 44 73.9062ZM44 80.0938C36.575 80.0938 30.5938 86.075 30.5938 93.5C30.5938 100.925 36.575 106.906 44 106.906C51.425 106.906 57.4062 100.925 57.4062 93.5C57.4062 86.075 51.425 80.0938 44 80.0938ZM142.863 113.094C141.144 113.197 136.469 115.328 132.55 118.972C129.559 121.722 126.878 125.262 125.262 128.906H154C157.953 128.906 162.8 126.947 167.269 124.678C167.131 123.234 166.925 122.031 166.512 121.241C165.962 120.106 165.172 119.281 163.522 118.387C160.222 116.6 153.588 115.122 142.863 113.094ZM167.406 131.278C166.719 131.587 166.237 131.828 165.447 132.137C161.906 133.547 157.781 135.094 154 135.094H8.59375V145.406H148.5C156.131 145.406 164.072 142.416 167.406 141.006V131.278Z" fill="#565656"/>
</svg>
