<svg width="150" height="150" viewBox="0 0 150 150" fill="none" xmlns="http://www.w3.org/2000/svg">
<path d="M75.0938 15.7539C65.7635 15.7539 57.4688 13 57.4688 13V13.5508C57.4688 18.2252 59.3257 22.7082 62.631 26.0135C65.9363 29.3189 70.4193 31.1758 75.0938 31.1758C79.7682 31.1758 84.2512 29.3189 87.5565 26.0135C90.8618 22.7082 92.7188 18.2252 92.7188 13.5508V13C92.7188 13 84.424 15.7539 75.0938 15.7539Z" fill="#565656"/>
<path d="M101.531 16.3047C100.019 29.4573 88.6457 39.7129 75.0938 39.7129C61.5418 39.7129 50.1681 29.4573 48.6562 16.3047L9 30.0742L13.957 61.4688L30.9514 63.5121C32.9012 63.76 32.9067 63.76 32.9067 65.7676L31.0312 136.375H119.156L117.281 65.7676C117.223 63.8399 117.223 63.8399 119.236 63.5121L136.23 61.4688L141.188 30.0742L101.531 16.3047Z" fill="#565656"/>
</svg>
